M48
; DRILL file {KiCad (5.1.5)-3} date 5/11/2020 1:51:32 PM
; FORMAT={-:-/ absolute / inch / decimal}
; #@! TF.CreationDate,2020-05-11T13:51:32+10:00
; #@! TF.GenerationSoftware,Kicad,Pcbnew,(5.1.5)-3
FMAT,2
INCH
T1C0.0157
T2C0.0276
T3C0.0295
T4C0.0315
T5C0.0374
T6C0.0394
%
G90
G05
T1
X3.9321Y-3.462
T2
X3.9Y-2.8
X3.9748Y-2.8
X3.7252Y-2.8
X3.8Y-2.8
T3
X3.05Y-2.8
X3.1Y-2.75
X3.15Y-2.8
T4
X3.3016Y-2.8
X3.4Y-2.8
X3.5016Y-2.8
X3.6Y-2.8
T5
X2.5Y-2.8
X2.5Y-2.8984
X2.5Y-2.9969
X2.5Y-4.0
X2.5Y-4.0984
X2.5Y-4.1969
X4.4Y-4.8047
X4.4Y-4.9031
X4.4Y-5.0016
X4.4Y-5.1
X4.4Y-2.7047
X4.4Y-2.8031
X4.4Y-2.9016
X4.4Y-3.0
X4.4Y-3.4047
X4.4Y-3.5031
X4.4Y-3.6016
X4.4Y-3.7
X4.0547Y-2.3
X4.1531Y-2.3
X4.2516Y-2.3
X4.35Y-2.3
X4.4Y-4.1047
X4.4Y-4.2031
X4.4Y-4.3016
X4.4Y-4.4
X2.5Y-3.4
X2.5Y-3.4984
X2.5Y-3.5969
X2.5Y-4.6
X2.5Y-4.6984
X2.5Y-4.7969
T6
X4.0Y-3.3
X4.0Y-3.4
X4.0Y-3.5
X4.0Y-3.6
X4.0Y-3.7
X4.0Y-3.8
X4.0Y-3.9
X4.0Y-4.0
X4.0Y-4.1
X4.0Y-4.2
X4.0Y-4.3
X4.0Y-4.4
X4.0Y-4.5
X4.0Y-4.6
X4.0Y-4.7
X4.0Y-4.8
X4.0Y-4.9
X4.0Y-5.0
X4.0Y-5.1
X3.0Y-3.3
X3.0Y-3.4
X3.0Y-3.5
X3.0Y-3.6
X3.0Y-3.7
X3.0Y-3.8
X3.0Y-3.9
X3.0Y-4.0
X3.0Y-4.1
X3.0Y-4.2
X3.0Y-4.3
X3.0Y-4.4
X3.0Y-4.5
X3.0Y-4.6
X3.0Y-4.7
X3.0Y-4.8
X3.0Y-4.9
X3.0Y-5.0
X3.0Y-5.1
X3.0516Y-2.3
X3.15Y-2.3
X2.5516Y-2.3
X2.65Y-2.3
X2.5Y-5.1
X2.6Y-5.1
X3.5516Y-2.3
X3.65Y-2.3
T0
M30
